<?xml version="1.0" encoding="UTF-8"?>
<svg id="Layer_1" xmlns="http://www.w3.org/2000/svg" version="1.1" viewBox="0 0 500 500">
  <!-- Generator: Adobe Illustrator 30.1.0, SVG Export Plug-In . SVG Version: 2.1.1 Build 136)  -->
  <defs>
    <style>
      .st0 {
        fill: #008dd2;
      }

      .st1 {
        fill: #e31e24;
      }
    </style>
  </defs>
  <path class="st0" d="M198.75,71.36c-10.07,2.05-19.11,5.64-24.48,12.84-18.13,24.48-11.45,57.33-11.98,84.74.8,18.93,12.02,27.47,27.73,27.39,10.61-1.1,14.57-4.31,16.95-10.27l-27.39,51.36c-.07.22-.13.45-.17.69-4.99,13.26-3.03,32.47.86,53.93,3.8,21,9.82,43.61,15.24,62.66-4.58,18.68-11.38,41.73-17.12,62.83-5.82,21.4-10.6,39.97-10.44,51.53-.34,17.48,16.19,27.61,27.56,27.56,13.77,0,25.11-10.63,28.42-25.51,8.94-36.56,18.02-73.17,27.05-109.73.11-.45.17-.91.17-1.37v-40.4l22.43,36.64-.68,113.84c.3,17.97,16.08,26.2,28.25,26.54,13.92,0,26.49-11.01,27.73-26.88,0-43.78,0-87.66,0-131.48.02-.95-.22-1.91-.68-2.74l-37.32-68.14,38.69-63.34c.35,31.09,2.56,54.5,12.15,81.66,6.45,17.09,26.51,20.23,39.03,14.04,12.02-7.81,13.01-20.85,9.07-34.07-10.89-42.88-7.4-61.75-5.31-96.38.23-10.76-1.2-19.93-4.62-27.73-3.22-7.1-8.46-12.36-14.89-15.58-25.78-14.58-51.69-29.01-77.55-43.48-7.95-4.08-15.96-6.75-22.94-8.39-22.21-4.43-44.21-6.87-65.74-2.74h0ZM261.93,84.89c9.09,2.11,16.54,4.9,19.52,6.85,26.06,14.56,52.17,29.21,78.24,43.83,4.67,3.12,8.41,6.45,10.27,10.44,2.7,8.46,4.22,13.97,3.6,22.94-2.07,33.98-5.59,55.47,5.65,99.63,2.6,8.1,2.51,17.4-3.94,21.57-10.52,4.24-19.81.57-23.45-8.39-11.01-31.33-12.32-53.49-11.81-96.38-.03-4.69-7.58-6.87-10.1-2.91l-49.99,82c-1.01,1.63-1.08,3.79-.17,5.48l38.18,69.68v129.25c-.84,10.75-8.46,16.78-16.78,16.78s-16.58-5.4-17.29-15.58c.17-38.46.34-76.92.51-115.38.04-1.01-.19-2.03-.68-2.91l-33.38-54.61c-2.52-3.96-10.07-1.78-10.1,2.91v59.4l-26.88,108.88c-2.17,11.75-9.67,17.07-17.8,17.29-11.34.1-16.44-8.89-16.61-16.6-.16-7.73,4.11-27.23,9.93-48.62,5.82-21.39,12.95-45.21,17.63-64.54.23-.89.23-1.85,0-2.74-5.46-19.16-11.64-42.38-15.41-63.17-3.71-20.52-4.61-38.9-1.54-47.59l60.95-114.53c1.38-2.63.13-6.3-2.57-7.53-11.54-5.87-22.01-10.13-34.07-10.61-4.6.4-9.6,2.85-11.98,7.7-1.7,16.9-.35,35.24-.17,52.56-1.18,7.95-1.03,14.31-11.64,15.4-10.9-.44-16.39-6.39-16.78-16.43.54-29.03-4.46-58.81,9.93-78.24,2.77-3.72,8.95-6.96,17.63-8.73,21.12-3.19,41.16-1.65,61.12,2.91h0ZM214.85,120.67c8.34.16,16.05,3.91,23.11,7.19l-27.39,51.19c.95-2.68,1.94-5.47,2.05-8.73-.17-16.08-.34-32.19-.51-48.28.94-1.36,1.89-.94,2.74-1.37h0Z"/>
  <path class="st1" d="M386.22,9.21c-28.08-15.16-56.08,1.93-68.31,21.06-14.54,23.74-8.38,53.59,14.89,66.25,23.27,12.66,53.77,2.7,68.31-21.05,14.54-23.74,8.36-53.59-14.89-66.27ZM391.34,70.16c-11.83,19.31-35.57,26.55-52.9,17.13-17.33-9.44-22.61-32.38-10.79-51.71,13.43-17.36,34.29-26.99,52.9-17.11,17.33,9.44,22.61,32.38,10.79,51.69Z"/>
  <polygon class="st1" points="96.55 156.96 91.07 178.87 129.42 206.26 134.9 184.35 167.77 200.79 129.42 156.96 123.94 178.87 96.55 156.96"/>
  <polygon class="st1" points="145.86 206.26 102.03 233.65 112.99 255.57 140.38 233.65 145.86 255.57 184.2 211.74 151.33 228.18 145.86 206.26"/>
</svg>