<?xml version="1.0" encoding="UTF-8"?>
<svg id="Layer_1" xmlns="http://www.w3.org/2000/svg" version="1.1" viewBox="0 0 500 500">
  <!-- Generator: Adobe Illustrator 30.1.0, SVG Export Plug-In . SVG Version: 2.1.1 Build 136)  -->
  <defs>
    <style>
      .st0 {
        fill: #e31f26;
      }

      .st1 {
        fill: #138ccc;
      }
    </style>
  </defs>
  <path class="st1" d="M465.2,261.84c-15.14,0-27.46,12.32-27.46,27.46v2.77c-10.22-12.01-25.42-19.65-42.38-19.65h-124.66V15.75c0-3.67-2.97-6.64-6.64-6.64h-116.46c-3.67,0-6.64,2.97-6.64,6.64s2.97,6.64,6.64,6.64h38.48v41.6h-20.5c-3.67,0-6.64,2.97-6.64,6.64v53.64c0,14.8,11.5,26.96,26.05,28.05,1.16,27.63-8.62,59.94-24.14,80.13l-2.46-2.4c-8.23-8.02-17.03-12.81-26.31-14.33,3.98-6.11,6.3-13.4,6.3-21.22,0-21.49-17.48-38.96-38.96-38.96s-38.99,17.48-38.99,38.96c0,17.3,11.33,32,26.96,37.08-1.46,1.23-2.91,2.52-4.37,3.88-5.06-2.83-11.89-2.9-18.69-.02-.72.3-1.41.64-2.09.99v-2.83c0-15.14-12.32-27.46-27.46-27.46s-27.46,12.32-27.46,27.46v250.69c0,3.67,2.97,6.64,6.64,6.64h41.65c3.67,0,6.64-2.97,6.64-6.64v-58.82h375.5v58.82c0,3.67,2.97,6.64,6.64,6.64h41.68c3.67,0,6.64-2.97,6.64-6.64v-194.95c0-15.14-12.33-27.46-27.49-27.46h0ZM437.74,328.1v42.4h-167.03v-84.81h124.66c23.37,0,42.38,19.02,42.38,42.4ZM213.23,77.26v8.22h-41v-8.22h41ZM172.22,124.25v-25.5h41v25.5c0,8.19-6.67,14.86-14.86,14.86h-11.26c-8.21,0-14.89-6.67-14.89-14.86ZM198.26,152.39h.11c15.51,0,28.13-12.62,28.13-28.14v-53.64c0-3.67-2.97-6.64-6.64-6.64h-20.5V22.38h58.07v250.04h-55.53l-31.46-30.66c19.9-24.83,28.74-61.54,27.82-89.37h0ZM156.8,247.01s.02.02.03.03c0,0,0,0,.01,0l37.73,36.77c1.24,1.21,2.9,1.88,4.63,1.88h58.23v31.47h-89.79l-74.71-72.81c6.76-6.2,13.35-10.62,19.69-13.2.39-.14.77-.29,1.15-.45,1.52-.57,3.03-1.05,4.53-1.4,11.01-2.62,21.09.72,30.83,10.22l7.67,7.48ZM99.43,220.19c-14.18,0-25.72-11.54-25.72-25.72s11.54-25.69,25.72-25.69,25.69,11.52,25.69,25.69c0,10.78-6.67,20.03-16.09,23.85-.32.12-.63.24-.95.36-2.7.97-5.62,1.5-8.65,1.5ZM69.5,247.64c3.56-1.5,6.42-1.32,7.4-.37l83.41,81.29c1.24,1.21,2.9,1.88,4.63,1.88h92.49v40.06H62.24v-115.55c0-2.05,2.78-5.42,7.26-7.32h0ZM48.96,477.62h-28.38v-244.05c0-7.82,6.36-14.19,14.19-14.19s14.19,6.36,14.19,14.19v244.05ZM62.24,412.16v-28.38h375.5v28.38H62.24ZM479.42,477.62h-28.4v-188.32c0-7.82,6.36-14.19,14.19-14.19s14.21,6.36,14.21,14.19v188.32Z"/>
  <path class="st0" d="M297.39,115.31c0-42.95,31.14-78.77,72.04-86.06l-9.72-8.51c-2.76-2.42-3.03-6.61-.62-9.37,2.42-2.76,6.61-3.03,9.37-.62l23.35,20.45c1.44,1.26,2.26,3.08,2.26,4.99,0,1.91-.82,3.73-2.26,4.99l-23.35,20.48c-1.26,1.1-2.82,1.65-4.37,1.65-1.84,0-3.68-.77-4.99-2.26-2.42-2.76-2.14-6.95.61-9.37l10.29-9.03c-33.81,6.88-59.34,36.84-59.34,72.65,0,40.87,33.26,74.11,74.14,74.11,3.67,0,6.64,2.97,6.64,6.64s-2.97,6.64-6.64,6.64c-48.2,0-87.41-39.2-87.41-87.39h0Z"/>
  <path class="st0" d="M411.54,55.69l7.82-13.54c1.83-3.17,5.89-4.26,9.07-2.43,3.17,1.83,4.26,5.89,2.43,9.07l-7.82,13.54c-1.23,2.13-3.46,3.32-5.75,3.32-1.13,0-2.27-.29-3.31-.89-3.17-1.83-4.26-5.89-2.43-9.07Z"/>
  <path class="st0" d="M435.35,86.11c-1.83-3.17-.75-7.23,2.43-9.07l13.54-7.82c3.17-1.83,7.24-.75,9.07,2.43,1.83,3.17.75,7.23-2.43,9.07l-13.54,7.82c-1.04.6-2.19.89-3.31.89-2.29,0-4.53-1.19-5.75-3.32Z"/>
  <path class="st0" d="M449.78,108.67h15.67c3.67,0,6.64,2.97,6.64,6.64s-2.97,6.64-6.64,6.64h-15.67c-3.67,0-6.64-2.97-6.64-6.64s2.97-6.64,6.64-6.64Z"/>
  <path class="st0" d="M435.35,144.48c1.83-3.17,5.89-4.26,9.07-2.43l13.54,7.82c3.17,1.83,4.26,5.89,2.43,9.07-1.23,2.13-3.46,3.32-5.75,3.32-1.13,0-2.27-.29-3.31-.89l-13.54-7.82c-3.17-1.83-4.26-5.89-2.43-9.07h0Z"/>
  <path class="st0" d="M430.86,181.8c1.83,3.18.75,7.23-2.43,9.07-1.04.6-2.19.89-3.31.89-2.29,0-4.53-1.19-5.75-3.32l-7.82-13.54c-1.83-3.18-.75-7.23,2.43-9.07,3.17-1.83,7.23-.74,9.07,2.43l7.82,13.54Z"/>
  <path class="st0" d="M391.55,103.58l16.05-9.28c3.17-1.84,7.23-.75,9.07,2.42,1.84,3.17.75,7.23-2.42,9.07l-15.92,9.21c0,.1.02.21.02.31,0,7.45-6.08,13.52-13.54,13.52s-13.54-6.06-13.54-13.52,6.08-13.54,13.54-13.54c2.46,0,4.76.67,6.75,1.82Z"/>
</svg>