<?xml version="1.0" encoding="UTF-8"?>
<svg id="Layer_1" xmlns="http://www.w3.org/2000/svg" version="1.1" viewBox="0 0 500 500">
  <!-- Generator: Adobe Illustrator 30.1.0, SVG Export Plug-In . SVG Version: 2.1.1 Build 136)  -->
  <defs>
    <style>
      .st0 {
        fill: #008dd2;
      }

      .st1 {
        fill: #e31e24;
      }
    </style>
  </defs>
  <path class="st0" d="M301.61,63.11h-92.33c-16.02,0-29.06-13.03-29.06-29.06s13.03-29.05,29.06-29.05h92.33c16.02,0,29.06,13.03,29.06,29.05s-13.04,29.06-29.06,29.06ZM209.29,16.7c-9.57,0-17.37,7.79-17.37,17.36s7.79,17.37,17.37,17.37h92.33c9.57,0,17.37-7.79,17.37-17.37s-7.79-17.36-17.37-17.36h-92.33Z"/>
  <path class="st0" d="M302.14,39.9h-22.28c-3.23,0-5.85-2.62-5.85-5.85s2.62-5.85,5.85-5.85h22.28c3.23,0,5.85,2.62,5.85,5.85s-2.61,5.85-5.85,5.85Z"/>
  <path class="st0" d="M280.16,341.99h-49.42v-42.75h-42.76v-49.42h42.76v-42.75h49.42v42.75h42.76v49.42h-42.76v42.75ZM242.43,330.3h26.03v-42.75h42.76v-26.04h-42.76v-42.75h-26.03v42.75h-42.76v26.04h42.76v42.75Z"/>
  <path class="st1" d="M144.64,403.54c-1.5,0-2.99-.57-4.13-1.71-2.29-2.29-2.29-5.98,0-8.27l8.95-8.95c2.29-2.29,5.98-2.29,8.27,0,2.29,2.29,2.29,5.98,0,8.27l-8.95,8.95c-1.15,1.15-2.64,1.71-4.13,1.71Z"/>
  <path class="st1" d="M357.31,190.89c-1.5,0-2.99-.57-4.13-1.71-2.29-2.29-2.29-5.99,0-8.27l29.54-29.56c9.97-9.97,9.97-26.19,0-36.16-4.83-4.83-11.25-7.49-18.08-7.49s-13.25,2.66-18.08,7.49l-5.13,5.13c-2.29,2.29-5.98,2.29-8.27,0-2.29-2.29-2.29-5.98,0-8.27l5.13-5.13c7.04-7.04,16.39-10.91,26.34-10.91s19.31,3.88,26.34,10.91c14.53,14.53,14.53,38.16,0,52.7l-29.54,29.56c-1.15,1.14-2.64,1.71-4.14,1.71Z"/>
  <path class="st1" d="M100.21,359.12c-1.5,0-2.99-.57-4.13-1.71-2.29-2.29-2.29-5.98,0-8.27l53.38-53.39c2.29-2.29,5.98-2.29,8.27,0,2.29,2.29,2.29,5.98,0,8.27l-53.38,53.39c-1.14,1.14-2.64,1.71-4.13,1.71Z"/>
  <path class="st1" d="M156.42,436.61c-1.5,0-2.99-.57-4.13-1.71l-95.17-95.17c-2.53-2.53-3.92-5.88-3.92-9.45s1.39-6.93,3.92-9.46c5.22-5.21,13.71-5.2,18.91,0l81.71,81.71c2.29,2.29,2.29,5.98,0,8.27s-5.98,2.29-8.27,0l-81.71-81.7c-.65-.65-1.72-.67-2.38,0-.4.4-.49.87-.49,1.19s.09.78.49,1.19l95.18,95.17c2.29,2.29,2.29,5.98,0,8.27-1.14,1.13-2.64,1.71-4.13,1.71h0Z"/>
  <path class="st1" d="M56.95,465.32c-1.5,0-2.99-.57-4.13-1.71l-18.75-18.75c-1.1-1.1-1.71-2.58-1.71-4.13s.61-3.04,1.71-4.13l64.09-64.09c1.1-1.1,2.58-1.71,4.13-1.71s3.04.61,4.13,1.71l18.75,18.75c2.29,2.29,2.29,5.98,0,8.27l-64.09,64.09c-1.15,1.15-2.64,1.71-4.13,1.71ZM46.46,440.73l10.49,10.48,55.82-55.83-10.48-10.48-55.82,55.83Z"/>
  <path class="st1" d="M386.73,116.79c-1.5,0-2.99-.57-4.13-1.71-2.29-2.29-2.29-5.98,0-8.27l75.24-75.25c2.29-2.29,5.98-2.29,8.27,0,2.29,2.29,2.29,5.98,0,8.27l-75.24,75.25c-1.15,1.14-2.64,1.71-4.13,1.71Z"/>
  <path class="st1" d="M56.83,494.99c-1.5,0-2.99-.57-4.13-1.71l-48.07-48.08c-2.29-2.29-2.29-5.98,0-8.27l14.89-14.89c2.19-2.19,6.07-2.19,8.27,0l48.08,48.08c1.1,1.1,1.71,2.58,1.71,4.13s-.61,3.04-1.71,4.13l-14.89,14.89c-1.14,1.14-2.64,1.71-4.13,1.71ZM17.03,441.07l39.81,39.81,6.63-6.62-39.81-39.81-6.62,6.62Z"/>
  <path class="st1" d="M481.22,96.76c-8.74,0-15.85-7.11-15.85-15.86,0-6.63,7.72-18.54,11.04-23.36,2.19-3.16,7.44-3.16,9.62,0,3.32,4.82,11.05,16.72,11.05,23.36,0,8.74-7.12,15.86-15.86,15.86ZM481.22,71.81c-2.38,4.14-4.07,7.75-4.17,9.14,0,2.26,1.87,4.13,4.16,4.13s4.17-1.87,4.17-4.17c-.09-1.37-1.78-4.96-4.16-9.1Z"/>
  <path class="st0" d="M310.63,467.38h-110.36c-28.96,0-52.53-23.56-52.53-52.53V154.48c0-28.96,23.56-52.53,52.53-52.53h7.58v-39.25c0-3.23,2.62-5.85,5.85-5.85s5.85,2.62,5.85,5.85v45.1c0,3.23-2.62,5.85-5.85,5.85h-13.42c-22.52,0-40.84,18.32-40.84,40.84v260.38c0,22.52,18.32,40.84,40.84,40.84h110.36c22.52,0,40.84-18.32,40.84-40.84V154.48c0-22.52-18.32-40.84-40.84-40.84h-15.06c-3.23,0-5.85-2.62-5.85-5.85v-45.1c0-3.23,2.62-5.85,5.85-5.85s5.85,2.62,5.85,5.85v39.25h9.22c28.96,0,52.53,23.56,52.53,52.53v260.38c0,28.96-23.56,52.52-52.53,52.52Z"/>
</svg>